<?xml version="1.0" standalone="no"?><!DOCTYPE svg PUBLIC "-//W3C//DTD SVG 1.1//EN" "http://www.w3.org/Graphics/SVG/1.1/DTD/svg11.dtd"><svg class="icon" width="200px" height="200.00px" viewBox="0 0 1024 1024" version="1.1" xmlns="http://www.w3.org/2000/svg"><path d="M253.44 981.290667a85.333333 85.333333 0 0 1-82.773333-85.333334v-298.666666H128a85.333333 85.333333 0 0 1-85.333333-85.333334l0.213333-0.298666c16.298667-14.506667 399.274667-355.669333 472.234667-355.669334a17.92 17.92 0 0 1 3.968 0.384c62.805333 14.037333 458.282667 352.170667 462.250666 355.584a85.333333 85.333333 0 0 1-85.333333 85.333334h-42.666667v298.666666a85.333333 85.333333 0 0 1-82.773333 85.333334z m514.56-42.666667a42.666667 42.666667 0 0 0 42.666667-42.666667v-298.666666H213.333333v298.666666a42.666667 42.666667 0 0 0 42.666667 42.666667h85.333333v-170.666667a85.333333 85.333333 0 0 1 85.333334-85.333333h170.666666a85.333333 85.333333 0 0 1 85.333334 85.333333v170.666667z m-384-170.666667v170.666667h256v-170.666667a42.666667 42.666667 0 0 0-42.666667-42.666666h-170.666666A42.666667 42.666667 0 0 0 384 768z m426.666667-170.666666v-42.666667c93.098667 0 106.666667-1.834667 106.666666-39.850667-3.328-2.986667-341.717333-304.384-398.848-315.733333a20.48 20.48 0 0 0-3.242666-0.298667c-66.090667 0-406.442667 312.789333-409.898667 315.989334-9.301333 46.677333 36.48 39.850667 108.032 39.850666v42.666667z" fill="#666666" /></svg>