<?xml version="1.0" standalone="no"?><!DOCTYPE svg PUBLIC "-//W3C//DTD SVG 1.1//EN" "http://www.w3.org/Graphics/SVG/1.1/DTD/svg11.dtd"><svg class="icon" width="200px" height="200.00px" viewBox="0 0 1024 1024" version="1.1" xmlns="http://www.w3.org/2000/svg"><path d="M310.3744 1019.2384l-116.736-158.72L0 836.8128 184.32 655.36A406.1184 406.1184 0 0 1 102.4 409.6a410.0608 410.0608 0 0 1 409.6-409.6 410.0608 410.0608 0 0 1 409.6 409.6 411.0336 411.0336 0 0 1-91.648 258.2528l171.6224 168.96-193.6384 23.4496-116.736 158.72-54.0672-219.392A409.2928 409.2928 0 0 1 512 819.2a407.5008 407.5008 0 0 1-145.8688-26.7264l-55.7568 226.7136zM512 51.2a358.8096 358.8096 0 0 0-358.4 358.4 358.8096 358.8096 0 0 0 358.4 358.4 358.8096 358.8096 0 0 0 358.4-358.4 358.8096 358.8096 0 0 0-358.4-358.4z m0 665.6a307.5072 307.5072 0 0 1-307.2-307.2 307.5584 307.5584 0 0 1 307.2-307.2 307.5584 307.5584 0 0 1 307.2 307.2 307.5584 307.5584 0 0 1-307.2 307.2z m2.2528-480.768a103.5264 103.5264 0 0 0-35.84 6.1952 88.5248 88.5248 0 0 0-28.7744 17.2544 79.6672 79.6672 0 0 0-19.0464 26.0608 78.8992 78.8992 0 0 0-6.8608 32.8704 71.2704 71.2704 0 0 0 12.3904 40.6016 95.6416 95.6416 0 0 0 33.3312 30.0544 88.7296 88.7296 0 0 0-25.344 14.6432 95.5392 95.5392 0 0 0-18.688 20.48 93.2352 93.2352 0 0 0-11.5712 24.2176 85.6064 85.6064 0 0 0-4.0448 25.6 95.3856 95.3856 0 0 0 7.7312 38.7072 87.8592 87.8592 0 0 0 21.7088 30.0544 101.7856 101.7856 0 0 0 33.0752 19.456 122.5728 122.5728 0 0 0 42.0864 6.9632 124.4672 124.4672 0 0 0 42.4448-6.9632 100.096 100.096 0 0 0 33.024-19.456 87.04 87.04 0 0 0 21.504-30.0544 96.8192 96.8192 0 0 0 7.6288-38.7072 87.04 87.04 0 0 0-4.0448-25.6 94.8224 94.8224 0 0 0-11.6224-24.2176 97.28 97.28 0 0 0-18.5344-20.48 88.8832 88.8832 0 0 0-24.9856-14.6432 96.8192 96.8192 0 0 0 32.8192-30.0544 71.2704 71.2704 0 0 0 12.3904-40.6016 79.7184 79.7184 0 0 0-6.7072-32.6144 78.0288 78.0288 0 0 0-18.944-26.0608 88.8832 88.8832 0 0 0-28.7744-17.3056 102.4 102.4 0 0 0-36.4032-6.4z m0 300.5952a74.4448 74.4448 0 0 1-26.6752-4.608 56.9856 56.9856 0 0 1-20.48-13.1584 59.3408 59.3408 0 0 1-13.056-20.48 75.9296 75.9296 0 0 1-4.608-27.1872 69.6832 69.6832 0 0 1 5.12-26.4704 62.5664 62.5664 0 0 1 13.6192-20.48 61.44 61.44 0 0 1 20.48-13.5168 67.6352 67.6352 0 0 1 25.6-4.864 66.56 66.56 0 0 1 26.7776 5.12 61.7984 61.7984 0 0 1 20.48 14.1824 64.0512 64.0512 0 0 1 13.1584 20.7872 69.1712 69.1712 0 0 1 4.608 25.344 72.8576 72.8576 0 0 1-4.8128 26.9824 59.9552 59.9552 0 0 1-13.5168 20.48 61.952 61.952 0 0 1-20.48 13.2608 71.1168 71.1168 0 0 1-26.0096 4.608z m0-161.3312a52.1216 52.1216 0 0 1-20.48-4.1472 54.0672 54.0672 0 0 1-16.9984-11.4688 53.4528 53.4528 0 0 1-11.4688-17.1008 54.2208 54.2208 0 0 1-4.1472-21.248 58.6752 58.6752 0 0 1 3.84-21.1456 50.3296 50.3296 0 0 1 10.9056-17.2544 51.2 51.2 0 0 1 16.8448-11.5712 53.9136 53.9136 0 0 1 21.7088-4.3008 53.8112 53.8112 0 0 1 21.0432 4.1472 53.3504 53.3504 0 0 1 16.9472 11.3664 53.0944 53.0944 0 0 1 11.3664 17.1008 55.552 55.552 0 0 1 4.1472 21.6064 52.1216 52.1216 0 0 1-4.3008 20.992 55.04 55.04 0 0 1-11.4688 17.1008 54.1184 54.1184 0 0 1-16.9472 11.6224 52.3264 52.3264 0 0 1-20.7872 4.3008z" fill="#4789F7" /></svg>